<svg width="264" height="49" viewBox="0 0 264 49" fill="none" xmlns="http://www.w3.org/2000/svg">
<path d="M2 37C10.6658 36.2779 17.9527 31.6987 26 28.7778C38.46 24.2553 52.3862 21.8582 60 10.1112C61.8348 7.28037 68.0263 -2.3492 62 5.22227C52.8294 16.7443 42.6556 27.384 31.9444 37.5C28.3191 40.924 24.6577 44.2724 20.7222 47.3334C20.1044 47.8139 21.7796 45.7106 22.1667 45.4445C33.7915 37.4524 46.8545 31.0728 59.4444 24.7778C64.25 22.375 63.6351 25.2823 67.5 27C74.9566 30.3141 85.7055 27.2574 93.5556 27C98.699 26.8314 104.344 25.5779 109.444 24.7778C115.821 23.7776 122.233 23.9682 128.667 23.2223C131.136 22.9359 142.444 21.8129 143 24.2223C143.402 25.9659 142.786 27.9961 143 29.7778C143.207 31.5006 149.362 29.7395 150.5 29.4445C157.036 27.75 160.372 26.6712 167.5 27.5C176.37 28.5315 183.819 28.4029 192.667 27.5C206.269 26.112 220.275 27 233.944 27C243.336 27 252.64 26 262 26" stroke="black" stroke-width="3" stroke-linecap="round"/>
</svg>
